<mxfile host="app.diagrams.net" agent="Mozilla/5.0 (Windows NT 10.0; Win64; x64; rv:134.0) Gecko/20100101 Firefox/134.0" version="26.0.10" pages="2">
  <diagram name="Page-1" id="x6gEALNd5nZn6TjsBxtj">
    <mxGraphModel dx="1114" dy="612" grid="1" gridSize="10" guides="1" tooltips="1" connect="1" arrows="1" fold="1" page="1" pageScale="1" pageWidth="850" pageHeight="1100" math="0" shadow="0">
      <root>
        <mxCell id="0" />
        <mxCell id="1" parent="0" />
        <mxCell id="8kLhxCeD8VAx9YLA9zUQ-1" value="Proceso en compra en linea" style="swimlane;html=1;childLayout=stackLayout;resizeParent=1;resizeParentMax=0;horizontal=1;startSize=20;horizontalStack=0;whiteSpace=wrap;" vertex="1" parent="1">
          <mxGeometry x="220" y="120" width="1140" height="290" as="geometry" />
        </mxCell>
        <mxCell id="8kLhxCeD8VAx9YLA9zUQ-2" value="Cliente" style="swimlane;html=1;startSize=20;horizontal=0;" vertex="1" parent="8kLhxCeD8VAx9YLA9zUQ-1">
          <mxGeometry y="20" width="1140" height="150" as="geometry" />
        </mxCell>
        <mxCell id="1NdR1Jxnn1vnLhmZp_m8-3" style="edgeStyle=orthogonalEdgeStyle;rounded=0;orthogonalLoop=1;jettySize=auto;html=1;exitX=1;exitY=0.5;exitDx=0;exitDy=0;exitPerimeter=0;entryX=0;entryY=0.5;entryDx=0;entryDy=0;" edge="1" parent="8kLhxCeD8VAx9YLA9zUQ-2" source="1NdR1Jxnn1vnLhmZp_m8-1" target="1NdR1Jxnn1vnLhmZp_m8-2">
          <mxGeometry relative="1" as="geometry" />
        </mxCell>
        <mxCell id="1NdR1Jxnn1vnLhmZp_m8-1" value="" style="points=[[0.145,0.145,0],[0.5,0,0],[0.855,0.145,0],[1,0.5,0],[0.855,0.855,0],[0.5,1,0],[0.145,0.855,0],[0,0.5,0]];shape=mxgraph.bpmn.event;html=1;verticalLabelPosition=bottom;labelBackgroundColor=#ffffff;verticalAlign=top;align=center;perimeter=ellipsePerimeter;outlineConnect=0;aspect=fixed;outline=standard;symbol=general;" vertex="1" parent="8kLhxCeD8VAx9YLA9zUQ-2">
          <mxGeometry x="40" y="30" width="40" height="40" as="geometry" />
        </mxCell>
        <mxCell id="1NdR1Jxnn1vnLhmZp_m8-5" value="" style="edgeStyle=orthogonalEdgeStyle;rounded=0;orthogonalLoop=1;jettySize=auto;html=1;" edge="1" parent="8kLhxCeD8VAx9YLA9zUQ-2" source="1NdR1Jxnn1vnLhmZp_m8-2" target="1NdR1Jxnn1vnLhmZp_m8-4">
          <mxGeometry relative="1" as="geometry" />
        </mxCell>
        <mxCell id="1NdR1Jxnn1vnLhmZp_m8-2" value="&lt;div&gt;Navegar a&lt;/div&gt;&lt;div&gt;sitio web&lt;br&gt;&lt;/div&gt;" style="rounded=0;whiteSpace=wrap;html=1;" vertex="1" parent="8kLhxCeD8VAx9YLA9zUQ-2">
          <mxGeometry x="110" y="30" width="90" height="40" as="geometry" />
        </mxCell>
        <mxCell id="1NdR1Jxnn1vnLhmZp_m8-12" value="" style="edgeStyle=orthogonalEdgeStyle;rounded=0;orthogonalLoop=1;jettySize=auto;html=1;" edge="1" parent="8kLhxCeD8VAx9YLA9zUQ-2" source="1NdR1Jxnn1vnLhmZp_m8-4" target="1NdR1Jxnn1vnLhmZp_m8-10">
          <mxGeometry relative="1" as="geometry" />
        </mxCell>
        <mxCell id="1NdR1Jxnn1vnLhmZp_m8-4" value="&lt;div&gt;Busca y agrega&lt;/div&gt;&lt;div&gt;productos al&lt;/div&gt;&lt;div&gt;carrito&lt;br&gt;&lt;/div&gt;" style="whiteSpace=wrap;html=1;rounded=0;" vertex="1" parent="8kLhxCeD8VAx9YLA9zUQ-2">
          <mxGeometry x="230" y="20" width="120" height="60" as="geometry" />
        </mxCell>
        <mxCell id="1NdR1Jxnn1vnLhmZp_m8-19" value="" style="edgeStyle=orthogonalEdgeStyle;rounded=0;orthogonalLoop=1;jettySize=auto;html=1;" edge="1" parent="8kLhxCeD8VAx9YLA9zUQ-2" source="1NdR1Jxnn1vnLhmZp_m8-6" target="1NdR1Jxnn1vnLhmZp_m8-17">
          <mxGeometry relative="1" as="geometry" />
        </mxCell>
        <mxCell id="1NdR1Jxnn1vnLhmZp_m8-6" value="&lt;div&gt;Ingresar&lt;/div&gt;&lt;div&gt;informacion para&lt;/div&gt;&lt;div&gt;continuar con el&lt;/div&gt;&lt;div&gt;pago&lt;br&gt;&lt;/div&gt;" style="whiteSpace=wrap;html=1;rounded=0;" vertex="1" parent="8kLhxCeD8VAx9YLA9zUQ-2">
          <mxGeometry x="500" y="20" width="120" height="60" as="geometry" />
        </mxCell>
        <mxCell id="1NdR1Jxnn1vnLhmZp_m8-13" value="" style="edgeStyle=orthogonalEdgeStyle;rounded=0;orthogonalLoop=1;jettySize=auto;html=1;" edge="1" parent="8kLhxCeD8VAx9YLA9zUQ-2" source="1NdR1Jxnn1vnLhmZp_m8-10" target="1NdR1Jxnn1vnLhmZp_m8-6">
          <mxGeometry relative="1" as="geometry" />
        </mxCell>
        <mxCell id="1NdR1Jxnn1vnLhmZp_m8-15" style="edgeStyle=orthogonalEdgeStyle;rounded=0;orthogonalLoop=1;jettySize=auto;html=1;exitX=0.5;exitY=1;exitDx=0;exitDy=0;entryX=0.5;entryY=1;entryDx=0;entryDy=0;" edge="1" parent="8kLhxCeD8VAx9YLA9zUQ-2" source="1NdR1Jxnn1vnLhmZp_m8-10" target="1NdR1Jxnn1vnLhmZp_m8-4">
          <mxGeometry relative="1" as="geometry" />
        </mxCell>
        <mxCell id="1NdR1Jxnn1vnLhmZp_m8-10" value="&lt;div&gt;Confirmar&lt;/div&gt;&lt;div&gt;carrito&lt;br&gt;&lt;/div&gt;" style="rhombus;whiteSpace=wrap;html=1;rounded=0;" vertex="1" parent="8kLhxCeD8VAx9YLA9zUQ-2">
          <mxGeometry x="380" y="10" width="80" height="80" as="geometry" />
        </mxCell>
        <mxCell id="1NdR1Jxnn1vnLhmZp_m8-14" value="&lt;div&gt;si&lt;/div&gt;" style="text;html=1;align=center;verticalAlign=middle;resizable=0;points=[];autosize=1;strokeColor=none;fillColor=none;" vertex="1" parent="8kLhxCeD8VAx9YLA9zUQ-2">
          <mxGeometry x="455" y="20" width="30" height="30" as="geometry" />
        </mxCell>
        <mxCell id="1NdR1Jxnn1vnLhmZp_m8-16" value="no" style="text;html=1;align=center;verticalAlign=middle;resizable=0;points=[];autosize=1;strokeColor=none;fillColor=none;" vertex="1" parent="8kLhxCeD8VAx9YLA9zUQ-2">
          <mxGeometry x="360" y="80" width="40" height="30" as="geometry" />
        </mxCell>
        <mxCell id="1NdR1Jxnn1vnLhmZp_m8-17" value="Procesar pago" style="rounded=1;whiteSpace=wrap;html=1;" vertex="1" parent="8kLhxCeD8VAx9YLA9zUQ-2">
          <mxGeometry x="660" y="20" width="120" height="60" as="geometry" />
        </mxCell>
        <mxCell id="1NdR1Jxnn1vnLhmZp_m8-25" value="" style="points=[[0.145,0.145,0],[0.5,0,0],[0.855,0.145,0],[1,0.5,0],[0.855,0.855,0],[0.5,1,0],[0.145,0.855,0],[0,0.5,0]];shape=mxgraph.bpmn.event;html=1;verticalLabelPosition=bottom;labelBackgroundColor=#ffffff;verticalAlign=top;align=center;perimeter=ellipsePerimeter;outlineConnect=0;aspect=fixed;outline=end;symbol=terminate2;" vertex="1" parent="8kLhxCeD8VAx9YLA9zUQ-2">
          <mxGeometry x="1090" y="35" width="35" height="35" as="geometry" />
        </mxCell>
        <mxCell id="1NdR1Jxnn1vnLhmZp_m8-33" value="" style="edgeStyle=orthogonalEdgeStyle;rounded=0;orthogonalLoop=1;jettySize=auto;html=1;" edge="1" parent="8kLhxCeD8VAx9YLA9zUQ-2" source="1NdR1Jxnn1vnLhmZp_m8-32" target="1NdR1Jxnn1vnLhmZp_m8-25">
          <mxGeometry relative="1" as="geometry" />
        </mxCell>
        <mxCell id="1NdR1Jxnn1vnLhmZp_m8-32" value="&lt;div&gt;recibe&lt;/div&gt;&lt;div&gt;producto&lt;br&gt;&lt;/div&gt;" style="rounded=1;whiteSpace=wrap;html=1;" vertex="1" parent="8kLhxCeD8VAx9YLA9zUQ-2">
          <mxGeometry x="920" y="22.5" width="120" height="60" as="geometry" />
        </mxCell>
        <mxCell id="8kLhxCeD8VAx9YLA9zUQ-3" value="Almacen" style="swimlane;html=1;startSize=20;horizontal=0;" vertex="1" parent="8kLhxCeD8VAx9YLA9zUQ-1">
          <mxGeometry y="170" width="1140" height="120" as="geometry" />
        </mxCell>
        <mxCell id="1NdR1Jxnn1vnLhmZp_m8-23" value="" style="edgeStyle=orthogonalEdgeStyle;rounded=0;orthogonalLoop=1;jettySize=auto;html=1;" edge="1" parent="8kLhxCeD8VAx9YLA9zUQ-3" source="1NdR1Jxnn1vnLhmZp_m8-20" target="1NdR1Jxnn1vnLhmZp_m8-22">
          <mxGeometry relative="1" as="geometry" />
        </mxCell>
        <mxCell id="1NdR1Jxnn1vnLhmZp_m8-20" value="Pedido notificado" style="rounded=1;whiteSpace=wrap;html=1;" vertex="1" parent="8kLhxCeD8VAx9YLA9zUQ-3">
          <mxGeometry x="660" y="30" width="120" height="60" as="geometry" />
        </mxCell>
        <mxCell id="1NdR1Jxnn1vnLhmZp_m8-26" value="" style="edgeStyle=orthogonalEdgeStyle;rounded=0;orthogonalLoop=1;jettySize=auto;html=1;" edge="1" parent="8kLhxCeD8VAx9YLA9zUQ-3" source="1NdR1Jxnn1vnLhmZp_m8-22" target="1NdR1Jxnn1vnLhmZp_m8-24">
          <mxGeometry relative="1" as="geometry" />
        </mxCell>
        <mxCell id="1NdR1Jxnn1vnLhmZp_m8-22" value="&lt;div&gt;Entregar a&lt;/div&gt;&lt;div&gt;compania de&lt;/div&gt;&lt;div&gt;envios&lt;br&gt;&lt;/div&gt;" style="rounded=0;whiteSpace=wrap;html=1;" vertex="1" parent="8kLhxCeD8VAx9YLA9zUQ-3">
          <mxGeometry x="820" y="30" width="120" height="60" as="geometry" />
        </mxCell>
        <mxCell id="1NdR1Jxnn1vnLhmZp_m8-24" value="" style="points=[[0.145,0.145,0],[0.5,0,0],[0.855,0.145,0],[1,0.5,0],[0.855,0.855,0],[0.5,1,0],[0.145,0.855,0],[0,0.5,0]];shape=mxgraph.bpmn.event;html=1;verticalLabelPosition=bottom;labelBackgroundColor=#ffffff;verticalAlign=top;align=center;perimeter=ellipsePerimeter;outlineConnect=0;aspect=fixed;outline=eventNonint;symbol=timer;" vertex="1" parent="8kLhxCeD8VAx9YLA9zUQ-3">
          <mxGeometry x="980" y="40" width="40" height="40" as="geometry" />
        </mxCell>
        <mxCell id="1NdR1Jxnn1vnLhmZp_m8-21" value="" style="edgeStyle=orthogonalEdgeStyle;rounded=0;orthogonalLoop=1;jettySize=auto;html=1;" edge="1" parent="8kLhxCeD8VAx9YLA9zUQ-1" source="1NdR1Jxnn1vnLhmZp_m8-17" target="1NdR1Jxnn1vnLhmZp_m8-20">
          <mxGeometry relative="1" as="geometry" />
        </mxCell>
        <mxCell id="1NdR1Jxnn1vnLhmZp_m8-34" value="" style="edgeStyle=orthogonalEdgeStyle;rounded=0;orthogonalLoop=1;jettySize=auto;html=1;" edge="1" parent="8kLhxCeD8VAx9YLA9zUQ-1" source="1NdR1Jxnn1vnLhmZp_m8-24" target="1NdR1Jxnn1vnLhmZp_m8-32">
          <mxGeometry relative="1" as="geometry" />
        </mxCell>
        <mxCell id="1NdR1Jxnn1vnLhmZp_m8-28" value="" style="rounded=1;whiteSpace=wrap;html=1;" vertex="1" parent="1">
          <mxGeometry x="220" y="65" width="70" height="30" as="geometry" />
        </mxCell>
        <mxCell id="1NdR1Jxnn1vnLhmZp_m8-29" value="= evento" style="text;html=1;align=center;verticalAlign=middle;resizable=0;points=[];autosize=1;strokeColor=none;fillColor=none;" vertex="1" parent="1">
          <mxGeometry x="290" y="65" width="70" height="30" as="geometry" />
        </mxCell>
        <mxCell id="1NdR1Jxnn1vnLhmZp_m8-30" value="" style="rounded=0;whiteSpace=wrap;html=1;" vertex="1" parent="1">
          <mxGeometry x="400" y="60" width="90" height="40" as="geometry" />
        </mxCell>
        <mxCell id="1NdR1Jxnn1vnLhmZp_m8-31" value="&lt;div&gt;= tarea&lt;/div&gt;" style="text;html=1;align=center;verticalAlign=middle;resizable=0;points=[];autosize=1;strokeColor=none;fillColor=none;" vertex="1" parent="1">
          <mxGeometry x="490" y="65" width="60" height="30" as="geometry" />
        </mxCell>
      </root>
    </mxGraphModel>
  </diagram>
  <diagram id="0Q92sWudcSwblRGkw3nt" name="Page-2">
    <mxGraphModel grid="1" page="1" gridSize="10" guides="1" tooltips="1" connect="1" arrows="1" fold="1" pageScale="1" pageWidth="850" pageHeight="1100" math="0" shadow="0">
      <root>
        <mxCell id="0" />
        <mxCell id="1" parent="0" />
      </root>
    </mxGraphModel>
  </diagram>
</mxfile>
